<svg width="265" height="293" viewBox="0 0 265 293" fill="none" xmlns="http://www.w3.org/2000/svg">
<mask id="path-1-inside-1_2502_3" fill="white">
<path d="M179.956 210.413C179.999 210.286 179.489 210.264 179.659 209.372C171.901 202.996 159.808 198.213 147.204 195.11C146.949 194.409 148.267 193.134 149.33 190.668C148.458 188.16 143.294 193.623 144.548 183.74C143.251 184.377 141.849 183.251 138.384 183.442L138.193 183.612C135.94 183.612 133.751 183.612 129.075 182.273C129.606 176.938 133.73 180.275 134.027 170.435L133.9 170.329C131.137 169.712 127.035 179.999 121.87 177.087C119.362 171.455 115.643 177.959 108.884 177.937C107.226 177.385 102.614 173.793 100.064 172.22C96.8331 172.22 93.9214 166.907 89.2243 170.839H89.0755C77.7898 171.455 85.7387 173.857 70.4785 182.507H70.4573C70.6698 180.552 68.3532 181.104 67.7368 178.894C67.3755 178.703 67.5242 179.106 66.3978 178.702L66.2278 178.83L66.079 179.383C66.164 179.701 66.079 179.319 66.6954 180.382L66.6528 180.7L66.1215 180.743C67.1417 182.528 66.8441 181.699 69.1183 186.651C68.9908 186.545 69.6284 187.098 70.3935 187.076L70.5423 187.247V187.629C70.5423 187.629 70.2022 187.523 69.0545 187.714C67.7155 190.69 66.8654 194.622 65.2288 199.425L65.909 199.489L66.079 199.637C66.1852 200.041 66.079 199.765 66.3553 201.805C66.4828 201.912 65.9727 201.593 65.1226 202.06C64.1661 204.037 63.061 206.354 61.4032 209.86C60.9356 210.838 60.8081 211.136 59.5116 213.92L59.6391 214.409C60.1209 214.848 61.559 216.159 63.9536 218.341C63.7198 218.468 63.8899 218.915 62.9759 219.297C62.9759 219.318 62.8697 219.212 62.2746 219.148L62.1471 219.233C61.9345 219.616 62.1683 219.467 61.2119 219.828L60.6805 220.594C60.0004 220.679 60.4042 221.189 58.9165 221.614V221.89L59.0228 221.954C59.1715 221.954 59.4691 221.89 59.5966 222.485L58.9802 222.698L58.8527 222.995L58.959 223.314L59.2778 223.548H59.3841C59.3841 223.548 59.3203 223.548 59.5754 223.314H59.7454C59.7454 223.314 59.8942 223.272 60.0642 223.675C59.7241 224.334 60.0004 226.013 61.7645 226.375C61.2331 227.437 61.637 229.754 62.1683 231.327H62.3171L62.4658 230.689L62.6784 230.562C63.146 230.498 63.231 231.199 63.9111 231.688L63.9536 231.858C63.7198 232.156 63.1035 232.049 62.5721 232.814L62.6784 232.921C62.7209 233.027 63.9749 232.708 63.9749 233.813C63.9749 233.962 63.8686 233.771 62.9547 234.6L62.9972 234.791C62.9972 234.791 63.1035 234.855 63.2735 234.961H63.3585C63.4648 235.11 63.2097 234.685 64.1237 235.705H64.2299L64.2937 235.386L64.6125 235.662C64.5487 236.151 64.8463 236.045 64.0174 237.172C64.3574 238.085 64.8463 239.934 63.146 241.635C63.2097 241.762 63.2522 241.762 63.5285 242.145C63.5285 242.209 63.5923 242.017 63.9749 242.4C64.3574 242.782 61.8282 244.717 62.5721 246.289C62.5509 246.332 62.6996 246.226 63.0397 246.566C63.0397 246.629 62.9122 246.863 62.5934 247.628C62.6359 247.65 62.5934 248.245 63.231 248.627L63.316 248.797L62.5934 249.988C62.5509 250.328 62.8909 250.753 62.3171 251.709C62.3383 251.922 62.5721 251.773 62.8272 252.687C62.7209 252.772 62.9972 252.708 62.2108 253.792C62.2321 254.174 61.6795 254.621 61.807 255.726C62.3383 255.811 62.3596 257.086 63.7411 256.576C63.8048 256.597 63.8048 256.576 64.2087 256.98C64.3574 256.916 64.3574 257.022 64.6763 256.704C64.7825 256.64 64.9313 256.895 65.3564 256.619H65.3138C65.3138 256.619 65.2926 256.491 65.3776 256.321C65.7602 256.257 66.3978 256.449 67.2267 256.194L67.3755 256.257C67.3967 256.087 67.4392 256.98 68.0556 257.554C68.4169 257.894 68.9907 257.001 69.7771 257.766C70.0109 257.766 70.9036 257.299 71.9025 258.213H72.0088L72.0725 258.106C72.2001 258.149 72.1576 258.106 72.4764 258.276H72.6676C72.6676 258.276 72.7527 258.213 72.7952 258C72.9864 257.894 73.7516 258.574 74.7718 257.745L74.8355 257.809L74.878 258.085L74.9843 258.191C75.5156 258.191 75.3456 257.809 76.4083 258.361C76.4083 258.404 76.4083 258.361 76.4296 258.489L76.5146 258.574C77.0884 258.723 77.5135 258.404 78.7462 258.723L78.9375 258.595V258.893L79.0012 258.957C79.1925 258.893 79.1713 258.957 79.7664 259.105L79.9577 258.638C79.9577 258.638 80.234 258.787 80.3615 259.594C80.4465 259.594 81.1479 259.892 81.4879 258.872H81.5517C81.8068 258.935 81.6367 258.935 82.5931 258.765V258.85L82.6569 258.893C82.7844 258.829 82.8269 258.787 83.1245 258.255C83.4645 258.446 83.252 258.213 83.9746 259.063L84.2297 259.127L84.3147 258.978L84.1446 258.659C85.93 258.149 85.4411 255.45 88.2891 255.747C89.033 257.426 91.1371 260.508 95.1541 259.382C95.813 259.828 95.3666 259.594 97.2369 260.104C97.3007 259.934 97.2369 260.083 97.4707 259.594C100.276 263.207 101.7 267.139 101.211 272.453C101.296 272.644 102.232 273.197 101.849 274.557C102.019 274.727 101.87 274.748 102.487 275.088C103.273 275.364 101.806 277.915 103.273 279.318C103.188 279.934 102.635 290.221 107.311 290.625C107.545 290.518 108.331 291.517 109.692 290.625C112.115 290.306 114.559 289.031 117.938 287.054C120.404 287.883 119.872 288.329 124.548 291.539C124.357 291.539 125.271 291.39 125.696 290.71C125.504 290.71 126.227 290.667 127.375 289.689C128.076 279.296 136.046 271.921 144.633 264.079C145.44 263.909 145.143 263.824 146.099 262.548L146.248 262.655C152.603 260.508 156.705 253.813 161.487 248.351C161.402 248.393 161.742 248.011 161.359 247.607L161.147 247.522L160.424 246.268L160.467 245.779C162.358 244.185 165.483 244.398 164.377 238.978C167.055 236.853 168.352 234.494 169.266 229.201C169.585 229.01 169.33 229.01 170.371 228.798C172.688 222.698 179.659 229.138 179.276 211.072C179.319 211.008 179.361 211.072 179.85 210.944L180.063 210.604L179.956 210.307V210.413Z"/>
</mask>
<path d="M179.956 210.413C179.999 210.286 179.489 210.264 179.659 209.372C171.901 202.996 159.808 198.213 147.204 195.11C146.949 194.409 148.267 193.134 149.33 190.668C148.458 188.16 143.294 193.623 144.548 183.74C143.251 184.377 141.849 183.251 138.384 183.442L138.193 183.612C135.94 183.612 133.751 183.612 129.075 182.273C129.606 176.938 133.73 180.275 134.027 170.435L133.9 170.329C131.137 169.712 127.035 179.999 121.87 177.087C119.362 171.455 115.643 177.959 108.884 177.937C107.226 177.385 102.614 173.793 100.064 172.22C96.8331 172.22 93.9214 166.907 89.2243 170.839H89.0755C77.7898 171.455 85.7387 173.857 70.4785 182.507H70.4573C70.6698 180.552 68.3532 181.104 67.7368 178.894C67.3755 178.703 67.5242 179.106 66.3978 178.702L66.2278 178.83L66.079 179.383C66.164 179.701 66.079 179.319 66.6954 180.382L66.6528 180.7L66.1215 180.743C67.1417 182.528 66.8441 181.699 69.1183 186.651C68.9908 186.545 69.6284 187.098 70.3935 187.076L70.5423 187.247V187.629C70.5423 187.629 70.2022 187.523 69.0545 187.714C67.7155 190.69 66.8654 194.622 65.2288 199.425L65.909 199.489L66.079 199.637C66.1852 200.041 66.079 199.765 66.3553 201.805C66.4828 201.912 65.9727 201.593 65.1226 202.06C64.1661 204.037 63.061 206.354 61.4032 209.86C60.9356 210.838 60.8081 211.136 59.5116 213.92L59.6391 214.409C60.1209 214.848 61.559 216.159 63.9536 218.341C63.7198 218.468 63.8899 218.915 62.9759 219.297C62.9759 219.318 62.8697 219.212 62.2746 219.148L62.1471 219.233C61.9345 219.616 62.1683 219.467 61.2119 219.828L60.6805 220.594C60.0004 220.679 60.4042 221.189 58.9165 221.614V221.89L59.0228 221.954C59.1715 221.954 59.4691 221.89 59.5966 222.485L58.9802 222.698L58.8527 222.995L58.959 223.314L59.2778 223.548H59.3841C59.3841 223.548 59.3203 223.548 59.5754 223.314H59.7454C59.7454 223.314 59.8942 223.272 60.0642 223.675C59.7241 224.334 60.0004 226.013 61.7645 226.375C61.2331 227.437 61.637 229.754 62.1683 231.327H62.3171L62.4658 230.689L62.6784 230.562C63.146 230.498 63.231 231.199 63.9111 231.688L63.9536 231.858C63.7198 232.156 63.1035 232.049 62.5721 232.814L62.6784 232.921C62.7209 233.027 63.9749 232.708 63.9749 233.813C63.9749 233.962 63.8686 233.771 62.9547 234.6L62.9972 234.791C62.9972 234.791 63.1035 234.855 63.2735 234.961H63.3585C63.4648 235.11 63.2097 234.685 64.1237 235.705H64.2299L64.2937 235.386L64.6125 235.662C64.5487 236.151 64.8463 236.045 64.0174 237.172C64.3574 238.085 64.8463 239.934 63.146 241.635C63.2097 241.762 63.2522 241.762 63.5285 242.145C63.5285 242.209 63.5923 242.017 63.9749 242.4C64.3574 242.782 61.8282 244.717 62.5721 246.289C62.5509 246.332 62.6996 246.226 63.0397 246.566C63.0397 246.629 62.9122 246.863 62.5934 247.628C62.6359 247.65 62.5934 248.245 63.231 248.627L63.316 248.797L62.5934 249.988C62.5509 250.328 62.8909 250.753 62.3171 251.709C62.3383 251.922 62.5721 251.773 62.8272 252.687C62.7209 252.772 62.9972 252.708 62.2108 253.792C62.2321 254.174 61.6795 254.621 61.807 255.726C62.3383 255.811 62.3596 257.086 63.7411 256.576C63.8048 256.597 63.8048 256.576 64.2087 256.98C64.3574 256.916 64.3574 257.022 64.6763 256.704C64.7825 256.64 64.9313 256.895 65.3564 256.619H65.3138C65.3138 256.619 65.2926 256.491 65.3776 256.321C65.7602 256.257 66.3978 256.449 67.2267 256.194L67.3755 256.257C67.3967 256.087 67.4392 256.98 68.0556 257.554C68.4169 257.894 68.9907 257.001 69.7771 257.766C70.0109 257.766 70.9036 257.299 71.9025 258.213H72.0088L72.0725 258.106C72.2001 258.149 72.1576 258.106 72.4764 258.276H72.6676C72.6676 258.276 72.7527 258.213 72.7952 258C72.9864 257.894 73.7516 258.574 74.7718 257.745L74.8355 257.809L74.878 258.085L74.9843 258.191C75.5156 258.191 75.3456 257.809 76.4083 258.361C76.4083 258.404 76.4083 258.361 76.4296 258.489L76.5146 258.574C77.0884 258.723 77.5135 258.404 78.7462 258.723L78.9375 258.595V258.893L79.0012 258.957C79.1925 258.893 79.1713 258.957 79.7664 259.105L79.9577 258.638C79.9577 258.638 80.234 258.787 80.3615 259.594C80.4465 259.594 81.1479 259.892 81.4879 258.872H81.5517C81.8068 258.935 81.6367 258.935 82.5931 258.765V258.85L82.6569 258.893C82.7844 258.829 82.8269 258.787 83.1245 258.255C83.4645 258.446 83.252 258.213 83.9746 259.063L84.2297 259.127L84.3147 258.978L84.1446 258.659C85.93 258.149 85.4411 255.45 88.2891 255.747C89.033 257.426 91.1371 260.508 95.1541 259.382C95.813 259.828 95.3666 259.594 97.2369 260.104C97.3007 259.934 97.2369 260.083 97.4707 259.594C100.276 263.207 101.7 267.139 101.211 272.453C101.296 272.644 102.232 273.197 101.849 274.557C102.019 274.727 101.87 274.748 102.487 275.088C103.273 275.364 101.806 277.915 103.273 279.318C103.188 279.934 102.635 290.221 107.311 290.625C107.545 290.518 108.331 291.517 109.692 290.625C112.115 290.306 114.559 289.031 117.938 287.054C120.404 287.883 119.872 288.329 124.548 291.539C124.357 291.539 125.271 291.39 125.696 290.71C125.504 290.71 126.227 290.667 127.375 289.689C128.076 279.296 136.046 271.921 144.633 264.079C145.44 263.909 145.143 263.824 146.099 262.548L146.248 262.655C152.603 260.508 156.705 253.813 161.487 248.351C161.402 248.393 161.742 248.011 161.359 247.607L161.147 247.522L160.424 246.268L160.467 245.779C162.358 244.185 165.483 244.398 164.377 238.978C167.055 236.853 168.352 234.494 169.266 229.201C169.585 229.01 169.33 229.01 170.371 228.798C172.688 222.698 179.659 229.138 179.276 211.072C179.319 211.008 179.361 211.072 179.85 210.944L180.063 210.604L179.956 210.307V210.413Z" fill="#1E1E1E" stroke="#F3F4F6" stroke-width="4.25074" mask="url(#path-1-inside-1_2502_3)"/>
<path d="M179.956 210.413C179.999 210.286 179.489 210.264 179.659 209.372C171.901 202.996 159.808 198.213 147.204 195.11C146.949 194.409 148.267 193.134 149.33 190.668C148.458 188.16 143.294 193.623 144.548 183.74C143.251 184.377 141.849 183.251 138.384 183.442L138.193 183.612C135.94 183.612 133.751 183.612 129.075 182.273C129.606 176.938 133.73 180.275 134.027 170.435L133.9 170.329C131.137 169.712 127.035 179.999 121.87 177.087C119.362 171.455 115.643 177.959 108.884 177.937C107.226 177.385 102.614 173.793 100.064 172.22C96.8331 172.22 93.9214 166.907 89.2243 170.839H89.0755C77.7898 171.455 85.7387 173.857 70.4785 182.507H70.4573C70.6698 180.552 68.3532 181.104 67.7368 178.894C67.3755 178.703 67.5242 179.106 66.3978 178.702L66.2278 178.83L66.079 179.383C66.164 179.701 66.079 179.319 66.6954 180.382L66.6528 180.7L66.1215 180.743C67.1417 182.528 66.8441 181.699 69.1183 186.651C68.9908 186.545 69.6284 187.098 70.3935 187.076L70.5423 187.247V187.629C70.5423 187.629 70.2022 187.523 69.0545 187.714C67.7155 190.69 66.8654 194.622 65.2288 199.425L65.909 199.489L66.079 199.637C66.1852 200.041 66.079 199.765 66.3553 201.805C66.4828 201.912 65.9727 201.593 65.1226 202.06C64.1661 204.037 63.061 206.354 61.4032 209.86C60.9356 210.838 60.8081 211.136 59.5116 213.92L59.6391 214.409C60.1209 214.848 61.559 216.159 63.9536 218.341C63.7198 218.468 63.8899 218.915 62.9759 219.297C62.9759 219.318 62.8697 219.212 62.2746 219.148L62.1471 219.233C61.9345 219.616 62.1683 219.467 61.2119 219.828L60.6805 220.594C60.0004 220.679 60.4042 221.189 58.9165 221.614V221.89L59.0228 221.954C59.1715 221.954 59.4691 221.89 59.5966 222.485L58.9802 222.698L58.8527 222.995L58.959 223.314L59.2778 223.548H59.3841C59.3841 223.548 59.3203 223.548 59.5754 223.314H59.7454C59.7454 223.314 59.8942 223.272 60.0642 223.675C59.7241 224.334 60.0004 226.013 61.7645 226.375C61.2331 227.437 61.637 229.754 62.1683 231.327H62.3171L62.4658 230.689L62.6784 230.562C63.146 230.498 63.231 231.199 63.9111 231.688L63.9536 231.858C63.7198 232.156 63.1035 232.049 62.5721 232.814L62.6784 232.921C62.7209 233.027 63.9749 232.708 63.9749 233.813C63.9749 233.962 63.8686 233.771 62.9547 234.6L62.9972 234.791C62.9972 234.791 63.1035 234.855 63.2735 234.961H63.3585C63.4648 235.11 63.2097 234.685 64.1237 235.705H64.2299L64.2937 235.386L64.6125 235.662C64.5487 236.151 64.8463 236.045 64.0174 237.172C64.3574 238.085 64.8463 239.934 63.146 241.635C63.2097 241.762 63.2522 241.762 63.5285 242.145C63.5285 242.209 63.5923 242.017 63.9749 242.4C64.3574 242.782 61.8282 244.717 62.5721 246.289C62.5509 246.332 62.6996 246.226 63.0397 246.566C63.0397 246.629 62.9122 246.863 62.5934 247.628C62.6359 247.65 62.5934 248.245 63.231 248.627L63.316 248.797L62.5934 249.988C62.5509 250.328 62.8909 250.753 62.3171 251.709C62.3383 251.922 62.5721 251.773 62.8272 252.687C62.7209 252.772 62.9972 252.708 62.2108 253.792C62.2321 254.174 61.6795 254.621 61.807 255.726C62.3383 255.811 62.3596 257.086 63.7411 256.576C63.8048 256.597 63.8048 256.576 64.2087 256.98C64.3574 256.916 64.3574 257.022 64.6763 256.704C64.7825 256.64 64.9313 256.895 65.3564 256.619H65.3138C65.3138 256.619 65.2926 256.491 65.3776 256.321C65.7602 256.257 66.3978 256.449 67.2267 256.194L67.3755 256.257C67.3967 256.087 67.4392 256.98 68.0556 257.554C68.4169 257.894 68.9907 257.001 69.7771 257.766C70.0109 257.766 70.9036 257.299 71.9025 258.213H72.0088L72.0725 258.106C72.2001 258.149 72.1576 258.106 72.4764 258.276H72.6676C72.6676 258.276 72.7527 258.213 72.7952 258C72.9864 257.894 73.7516 258.574 74.7718 257.745L74.8355 257.809L74.878 258.085L74.9843 258.191C75.5156 258.191 75.3456 257.809 76.4083 258.361C76.4083 258.404 76.4083 258.361 76.4296 258.489L76.5146 258.574C77.0884 258.723 77.5135 258.404 78.7462 258.723L78.9375 258.595V258.893L79.0012 258.957C79.1925 258.893 79.1713 258.957 79.7664 259.105L79.9577 258.638C79.9577 258.638 80.234 258.787 80.3615 259.594C80.4465 259.594 81.1479 259.892 81.4879 258.872H81.5517C81.8068 258.935 81.6367 258.935 82.5931 258.765V258.85L82.6569 258.893C82.7844 258.829 82.8269 258.787 83.1245 258.255C83.4645 258.446 83.252 258.213 83.9746 259.063L84.2297 259.127L84.3147 258.978L84.1446 258.659C85.93 258.149 85.4411 255.45 88.2891 255.747C89.033 257.426 91.1371 260.508 95.1541 259.382C95.813 259.828 95.3666 259.594 97.2369 260.104C97.3007 259.934 97.2369 260.083 97.4707 259.594C100.276 263.207 101.7 267.139 101.211 272.453C101.296 272.644 102.232 273.197 101.849 274.557C102.019 274.727 101.87 274.748 102.487 275.088C103.273 275.364 101.806 277.915 103.273 279.318C103.188 279.934 102.635 290.221 107.311 290.625C107.545 290.518 108.331 291.517 109.692 290.625C112.115 290.306 114.559 289.031 117.938 287.054C120.404 287.883 119.872 288.329 124.548 291.539C124.357 291.539 125.271 291.39 125.696 290.71C125.504 290.71 126.227 290.667 127.375 289.689C128.076 279.296 136.046 271.921 144.633 264.079C145.44 263.909 145.143 263.824 146.099 262.548L146.248 262.655C152.603 260.508 156.705 253.813 161.487 248.351C161.402 248.393 161.742 248.011 161.359 247.607L161.147 247.522L160.424 246.268L160.467 245.779C162.358 244.185 165.483 244.398 164.377 238.978C167.055 236.853 168.352 234.494 169.266 229.201C169.585 229.01 169.33 229.01 170.371 228.798C172.688 222.698 179.659 229.138 179.276 211.072C179.319 211.008 179.361 211.072 179.85 210.944L180.063 210.604L179.956 210.307V210.413Z" fill="#1E1E1E" stroke="#F3F4F6" stroke-width="1.06269" stroke-linecap="round" stroke-linejoin="round"/>
<mask id="path-3-inside-2_2502_3" fill="white">
<path d="M176.152 42.4235C159.362 41.4671 101.976 38.109 87.3964 36.855L87.2901 37.0038C86.2487 36.6 63.5284 26.802 67.6092 15.9839C63.4647 11.9032 64.6762 6.16466 59.299 1C54.0068 7.77994 57.9812 17.1528 52.434 24.7191L1 25.0592C4.65564 26.5895 1.29756 28.4173 2.33899 32.7531C2.23273 32.9656 1.89266 32.7531 1.29755 33.0506C1.29755 33.1781 1.14879 33.1144 1.27631 33.667C1.36132 35.4098 1.80765 36.3237 3.16789 39.5755V39.7455C2.70031 39.9793 2.99785 40.872 1.85015 41.127L1.78639 41.2546C1.99893 46.6743 2.80656 51.01 2.80656 57.5136C2.84907 57.6837 2.9766 57.6837 3.35916 57.8962C3.38042 58.0025 3.59296 58.5551 3.06161 59.0864C3.06161 59.0864 2.95535 59.0864 2.7003 59.0014L2.59403 59.0864C2.72155 60.0216 2.53027 60.4254 2.7003 62.6571C3.27415 62.9971 18.258 62.7846 20.6385 62.8909L20.766 62.9759C20.766 63.1034 20.7022 63.0396 20.6385 63.5285C20.7872 63.6347 20.3196 63.4647 21.8287 64.6974C33.3907 63.8047 26.9296 68.3531 26.632 77.3646C35.7286 83.9958 25.8881 99.7873 15.8776 108.268C16.1327 108.395 17.9605 110.138 20.1284 110.584C20.4684 110.988 19.9796 112.263 21.2123 113.092L21.2548 113.198L21.1698 113.368C21.1698 113.368 21.2548 113.453 21.5311 113.623C21.4461 113.857 21.5949 115.409 20.2134 115.834C19.512 118.809 21.4673 118.979 22.3813 123.209L21.8712 123.379C23.7627 125.207 23.3802 127.991 23.4439 132.901C23.4227 132.901 21.021 132.922 18.3005 132.964C24.3578 137.321 24.6341 144.293 25.378 153.155C33.7732 152.964 45.2715 155.557 55.027 153.41H55.7496L55.9196 153.58C55.8346 153.495 56.0684 153.772 55.9196 155.515L55.5158 155.833V156.131L55.8346 156.769C52.519 160.169 53.7943 164.08 55.197 170.605C59.1077 173.474 64.5274 174.09 66.2064 178.809L66.3764 178.681C66.3764 178.681 66.9928 178.872 67.7154 178.872C67.843 180.53 70.6272 180.636 70.4359 182.486H70.4572C71.3286 179.34 75.7494 182.273 80.2126 175.153C81.6154 170.286 83.507 172.284 89.0754 170.839H89.2242C93.1774 167.735 94.6227 170.626 100.064 172.199C103.358 174.09 103.783 175.451 108.884 177.916C112.667 178.979 115.77 173.75 120.191 175.111C124.612 181.635 127.375 173.793 133.9 170.307L134.027 170.413C134.898 174.685 130.201 178.299 129.075 182.252C130.796 182.294 133.581 183.952 138.193 183.591L138.384 183.421C139.34 183.017 141.572 184.25 144.548 183.718C144.335 181.232 140.531 178.171 141.721 174.685C141.657 174.622 141.657 173.219 142.252 172.262C141.423 169.308 145.589 167.757 145.1 163.633C147.502 161.827 151.604 160.02 151.88 155.94C149.053 154.579 152.56 152.39 154.686 150.456L154.771 150.18C154.771 150.18 155.685 149.585 156.62 149.351C156.96 146.248 160.807 147.311 162.783 145.1C164.144 145.844 166.418 143.145 165.695 140.573L165.823 140.339L166.205 140.573C167.098 140.106 167.565 137.768 167.735 136.131C167.672 136.131 167.906 136.131 168.118 135.834C168.118 135.834 168.118 135.515 167.969 134.877C169.096 133.411 170.987 131.88 173.623 130.499L173.835 130.754C173.835 130.754 173.75 130.711 174.005 131.434C174.494 131.668 175.387 131.413 176.449 130.456V130.393C176.62 130.244 176.45 129.67 177.321 129.33L177.448 128.204C177.448 128.204 177.385 128.097 177.852 127.885C177.746 127.056 178.426 125.207 179.276 123.783L179.234 123.591C179.468 121.02 179.042 119.617 180.275 116.131L180.318 116.068L180.381 116.025C182.294 116.089 181.402 112.114 181.232 109.266C183.782 106.971 186.439 101.148 186.375 97.3219L186.332 97.2156C186.779 96.4505 187.99 96.6843 187.671 94.2401C187.969 94.1126 185.822 94.3676 186.332 93.56C186.184 93.4962 186.184 93.5175 185.801 93.6025C185.567 92.4548 185.397 91.2858 184.505 90.0956L184.568 90.0531H184.653C184.653 90.0531 184.696 90.1169 184.823 90.1594L184.866 90.1169C184.823 89.458 185.142 88.6291 185.206 87.5027C185.822 88.3103 184.25 79.3837 184.526 77.5984C183.144 72.0725 184.59 66.2489 185.716 59.2564C186.396 58.8314 185.015 56.5572 186.588 56.0471C186.588 56.1959 186.63 55.5796 187.076 55.282C187.076 55.112 187.119 55.1545 186.97 54.6657C188.925 51.18 189.202 47.907 191.816 43.1674L176.131 42.3597L176.152 42.4235Z"/>
</mask>
<path d="M176.152 42.4235C159.362 41.4671 101.976 38.109 87.3964 36.855L87.2901 37.0038C86.2487 36.6 63.5284 26.802 67.6092 15.9839C63.4647 11.9032 64.6762 6.16466 59.299 1C54.0068 7.77994 57.9812 17.1528 52.434 24.7191L1 25.0592C4.65564 26.5895 1.29756 28.4173 2.33899 32.7531C2.23273 32.9656 1.89266 32.7531 1.29755 33.0506C1.29755 33.1781 1.14879 33.1144 1.27631 33.667C1.36132 35.4098 1.80765 36.3237 3.16789 39.5755V39.7455C2.70031 39.9793 2.99785 40.872 1.85015 41.127L1.78639 41.2546C1.99893 46.6743 2.80656 51.01 2.80656 57.5136C2.84907 57.6837 2.9766 57.6837 3.35916 57.8962C3.38042 58.0025 3.59296 58.5551 3.06161 59.0864C3.06161 59.0864 2.95535 59.0864 2.7003 59.0014L2.59403 59.0864C2.72155 60.0216 2.53027 60.4254 2.7003 62.6571C3.27415 62.9971 18.258 62.7846 20.6385 62.8909L20.766 62.9759C20.766 63.1034 20.7022 63.0396 20.6385 63.5285C20.7872 63.6347 20.3196 63.4647 21.8287 64.6974C33.3907 63.8047 26.9296 68.3531 26.632 77.3646C35.7286 83.9958 25.8881 99.7873 15.8776 108.268C16.1327 108.395 17.9605 110.138 20.1284 110.584C20.4684 110.988 19.9796 112.263 21.2123 113.092L21.2548 113.198L21.1698 113.368C21.1698 113.368 21.2548 113.453 21.5311 113.623C21.4461 113.857 21.5949 115.409 20.2134 115.834C19.512 118.809 21.4673 118.979 22.3813 123.209L21.8712 123.379C23.7627 125.207 23.3802 127.991 23.4439 132.901C23.4227 132.901 21.021 132.922 18.3005 132.964C24.3578 137.321 24.6341 144.293 25.378 153.155C33.7732 152.964 45.2715 155.557 55.027 153.41H55.7496L55.9196 153.58C55.8346 153.495 56.0684 153.772 55.9196 155.515L55.5158 155.833V156.131L55.8346 156.769C52.519 160.169 53.7943 164.08 55.197 170.605C59.1077 173.474 64.5274 174.09 66.2064 178.809L66.3764 178.681C66.3764 178.681 66.9928 178.872 67.7154 178.872C67.843 180.53 70.6272 180.636 70.4359 182.486H70.4572C71.3286 179.34 75.7494 182.273 80.2126 175.153C81.6154 170.286 83.507 172.284 89.0754 170.839H89.2242C93.1774 167.735 94.6227 170.626 100.064 172.199C103.358 174.09 103.783 175.451 108.884 177.916C112.667 178.979 115.77 173.75 120.191 175.111C124.612 181.635 127.375 173.793 133.9 170.307L134.027 170.413C134.898 174.685 130.201 178.299 129.075 182.252C130.796 182.294 133.581 183.952 138.193 183.591L138.384 183.421C139.34 183.017 141.572 184.25 144.548 183.718C144.335 181.232 140.531 178.171 141.721 174.685C141.657 174.622 141.657 173.219 142.252 172.262C141.423 169.308 145.589 167.757 145.1 163.633C147.502 161.827 151.604 160.02 151.88 155.94C149.053 154.579 152.56 152.39 154.686 150.456L154.771 150.18C154.771 150.18 155.685 149.585 156.62 149.351C156.96 146.248 160.807 147.311 162.783 145.1C164.144 145.844 166.418 143.145 165.695 140.573L165.823 140.339L166.205 140.573C167.098 140.106 167.565 137.768 167.735 136.131C167.672 136.131 167.906 136.131 168.118 135.834C168.118 135.834 168.118 135.515 167.969 134.877C169.096 133.411 170.987 131.88 173.623 130.499L173.835 130.754C173.835 130.754 173.75 130.711 174.005 131.434C174.494 131.668 175.387 131.413 176.449 130.456V130.393C176.62 130.244 176.45 129.67 177.321 129.33L177.448 128.204C177.448 128.204 177.385 128.097 177.852 127.885C177.746 127.056 178.426 125.207 179.276 123.783L179.234 123.591C179.468 121.02 179.042 119.617 180.275 116.131L180.318 116.068L180.381 116.025C182.294 116.089 181.402 112.114 181.232 109.266C183.782 106.971 186.439 101.148 186.375 97.3219L186.332 97.2156C186.779 96.4505 187.99 96.6843 187.671 94.2401C187.969 94.1126 185.822 94.3676 186.332 93.56C186.184 93.4962 186.184 93.5175 185.801 93.6025C185.567 92.4548 185.397 91.2858 184.505 90.0956L184.568 90.0531H184.653C184.653 90.0531 184.696 90.1169 184.823 90.1594L184.866 90.1169C184.823 89.458 185.142 88.6291 185.206 87.5027C185.822 88.3103 184.25 79.3837 184.526 77.5984C183.144 72.0725 184.59 66.2489 185.716 59.2564C186.396 58.8314 185.015 56.5572 186.588 56.0471C186.588 56.1959 186.63 55.5796 187.076 55.282C187.076 55.112 187.119 55.1545 186.97 54.6657C188.925 51.18 189.202 47.907 191.816 43.1674L176.131 42.3597L176.152 42.4235Z" fill="#1E1E1E" stroke="#F3F4F6" stroke-width="4.25074" mask="url(#path-3-inside-2_2502_3)"/>
<path d="M176.152 42.4235C159.362 41.4671 101.976 38.109 87.3964 36.855L87.2901 37.0038C86.2487 36.6 63.5284 26.802 67.6092 15.9839C63.4647 11.9032 64.6762 6.16466 59.299 1C54.0068 7.77994 57.9812 17.1528 52.434 24.7191L1 25.0592C4.65564 26.5895 1.29756 28.4173 2.33899 32.7531C2.23273 32.9656 1.89266 32.7531 1.29755 33.0506C1.29755 33.1781 1.14879 33.1144 1.27631 33.667C1.36132 35.4098 1.80765 36.3237 3.16789 39.5755V39.7455C2.70031 39.9793 2.99785 40.872 1.85015 41.127L1.78639 41.2546C1.99893 46.6743 2.80656 51.01 2.80656 57.5136C2.84907 57.6837 2.9766 57.6837 3.35916 57.8962C3.38042 58.0025 3.59296 58.5551 3.06161 59.0864C3.06161 59.0864 2.95535 59.0864 2.7003 59.0014L2.59403 59.0864C2.72155 60.0216 2.53027 60.4254 2.7003 62.6571C3.27415 62.9971 18.258 62.7846 20.6385 62.8909L20.766 62.9759C20.766 63.1034 20.7022 63.0396 20.6385 63.5285C20.7872 63.6347 20.3196 63.4647 21.8287 64.6974C33.3907 63.8047 26.9296 68.3531 26.632 77.3646C35.7286 83.9958 25.8881 99.7873 15.8776 108.268C16.1327 108.395 17.9605 110.138 20.1284 110.584C20.4684 110.988 19.9796 112.263 21.2123 113.092L21.2548 113.198L21.1698 113.368C21.1698 113.368 21.2548 113.453 21.5311 113.623C21.4461 113.857 21.5949 115.409 20.2134 115.834C19.512 118.809 21.4673 118.979 22.3813 123.209L21.8712 123.379C23.7627 125.207 23.3802 127.991 23.4439 132.901C23.4227 132.901 21.021 132.922 18.3005 132.964C24.3578 137.321 24.6341 144.293 25.378 153.155C33.7732 152.964 45.2715 155.557 55.027 153.41H55.7496L55.9196 153.58C55.8346 153.495 56.0684 153.772 55.9196 155.515L55.5158 155.833V156.131L55.8346 156.769C52.519 160.169 53.7943 164.08 55.197 170.605C59.1077 173.474 64.5274 174.09 66.2064 178.809L66.3764 178.681C66.3764 178.681 66.9928 178.872 67.7154 178.872C67.843 180.53 70.6272 180.636 70.4359 182.486H70.4572C71.3286 179.34 75.7494 182.273 80.2126 175.153C81.6154 170.286 83.507 172.284 89.0754 170.839H89.2242C93.1774 167.735 94.6227 170.626 100.064 172.199C103.358 174.09 103.783 175.451 108.884 177.916C112.667 178.979 115.77 173.75 120.191 175.111C124.612 181.635 127.375 173.793 133.9 170.307L134.027 170.413C134.898 174.685 130.201 178.299 129.075 182.252C130.796 182.294 133.581 183.952 138.193 183.591L138.384 183.421C139.34 183.017 141.572 184.25 144.548 183.718C144.335 181.232 140.531 178.171 141.721 174.685C141.657 174.622 141.657 173.219 142.252 172.262C141.423 169.308 145.589 167.757 145.1 163.633C147.502 161.827 151.604 160.02 151.88 155.94C149.053 154.579 152.56 152.39 154.686 150.456L154.771 150.18C154.771 150.18 155.685 149.585 156.62 149.351C156.96 146.248 160.807 147.311 162.783 145.1C164.144 145.844 166.418 143.145 165.695 140.573L165.823 140.339L166.205 140.573C167.098 140.106 167.565 137.768 167.735 136.131C167.672 136.131 167.906 136.131 168.118 135.834C168.118 135.834 168.118 135.515 167.969 134.877C169.096 133.411 170.987 131.88 173.623 130.499L173.835 130.754C173.835 130.754 173.75 130.711 174.005 131.434C174.494 131.668 175.387 131.413 176.449 130.456V130.393C176.62 130.244 176.45 129.67 177.321 129.33L177.448 128.204C177.448 128.204 177.385 128.097 177.852 127.885C177.746 127.056 178.426 125.207 179.276 123.783L179.234 123.591C179.468 121.02 179.042 119.617 180.275 116.131L180.318 116.068L180.381 116.025C182.294 116.089 181.402 112.114 181.232 109.266C183.782 106.971 186.439 101.148 186.375 97.3219L186.332 97.2156C186.779 96.4505 187.99 96.6843 187.671 94.2401C187.969 94.1126 185.822 94.3676 186.332 93.56C186.184 93.4962 186.184 93.5175 185.801 93.6025C185.567 92.4548 185.397 91.2858 184.505 90.0956L184.568 90.0531H184.653C184.653 90.0531 184.696 90.1169 184.823 90.1594L184.866 90.1169C184.823 89.458 185.142 88.6291 185.206 87.5027C185.822 88.3103 184.25 79.3837 184.526 77.5984C183.144 72.0725 184.59 66.2489 185.716 59.2564C186.396 58.8314 185.015 56.5572 186.588 56.0471C186.588 56.1959 186.63 55.5796 187.076 55.282C187.076 55.112 187.119 55.1545 186.97 54.6657C188.925 51.18 189.202 47.907 191.816 43.1674L176.131 42.3597L176.152 42.4235Z" fill="#1E1E1E" stroke="#F3F4F6" stroke-width="1.06269" stroke-linecap="round" stroke-linejoin="round"/>
<mask id="path-5-inside-3_2502_3" fill="white">
<path d="M264.27 125.461C265.503 118.49 252.283 113.219 261.613 102.21C261.656 101.211 261.975 101.466 259.87 100.531C258.701 98.6818 264.1 96.1951 258.956 93.4533C252.772 95.4087 246.311 98.8943 237.575 101.338C237.575 101.296 237.469 101.53 237.469 101.657C237.341 101.764 237.363 101.657 237.214 102.019L237.15 102.061H237.065C236.725 101.02 236.045 99.7869 235.089 98.703C233.452 99.2769 234.238 100.616 235.046 102.996C234.493 103.166 231.964 102.167 230.2 101.083C230.136 101.105 230.136 101.105 229.818 101.423C229.159 101.551 228.309 99.787 226.481 100.042L226.417 99.9995C226.29 99.7869 226.608 99.6169 226.906 98.2142C226.906 98.2142 226.906 98.2142 226.8 98.0867C225.206 100.977 218.511 98.1717 218.064 101.551C215.153 106.992 218.999 99.6382 212.432 91.0517C209.754 91.9231 207.034 97.0877 206.077 101.211C203.803 100.361 200.105 100.212 195.897 97.3003C189.223 97.0452 191.773 93.007 193.219 86.7159C193.729 86.4609 191.263 87.7574 190.605 88.565C190.605 88.565 190.605 88.5225 190.392 88.6288C190.392 88.65 190.371 88.6075 190.286 88.8626C190.201 88.9476 190.264 88.905 189.861 89.1388C188.968 90.6266 188.267 91.9231 187.629 94.3035C187.884 94.6223 187.735 96.3651 186.29 97.279L186.333 97.3853C186.8 101.147 183.442 105.653 181.38 109.989C180.892 110.159 182.762 116.62 180.36 116.089L180.296 116.131L180.254 116.195C179.893 117.704 179.043 121.104 179.213 123.655L179.255 123.846C178.809 125.164 177.874 125.546 177.831 127.948C177.831 127.991 177.746 127.863 177.427 128.267L177.3 129.393C177.13 129.627 176.62 129.521 176.428 130.456V130.52C176.152 130.647 175.238 131.859 173.984 131.498C173.984 131.391 173.942 131.668 173.814 130.817L173.602 130.562C171.986 131.519 169.797 132.454 167.948 134.941C167.927 135.111 168.076 135.089 168.097 135.897C167.991 136.025 168.097 135.982 167.714 136.195C167.268 137.576 167.906 138.83 166.184 140.637L165.801 140.403L165.674 140.637C166.397 141.317 165.185 145.844 162.762 145.164C162.295 147.587 157.768 145.036 156.599 149.414C156.025 149.563 156.11 149.478 154.749 150.243L154.664 150.52C154.749 151.008 148.288 154.43 151.859 156.003C151.306 159.425 149.054 161.253 145.079 163.697C145.95 166.757 141.593 168.968 142.231 172.326C141.933 173.027 141.678 172.964 141.7 174.749C140.446 178.319 145.865 182.528 144.696 189.499C145.993 191.539 146.524 187.926 149.309 190.71C149.394 191.879 147.906 191.943 147.183 195.152C156.131 197.639 170.392 201.422 179.638 209.414L179.765 209.159L180.02 209.074C180.02 209.074 180.424 208.946 180.764 209.477L180.977 209.541C180.977 209.541 180.955 209.605 181.147 209.626C181.295 209.562 181.253 209.562 181.678 209.222C181.487 208.946 181.635 208.989 180.977 208.308C180.977 206.799 182.443 205.801 183.229 204.27C183.612 203.951 183.803 203.909 184.781 202.995C185.291 203.25 186.63 203.59 187.416 201.847C187.459 193.473 196.832 196.088 204.058 192.177C204.866 192.347 204.313 193.516 205.95 194.557C208.5 193.495 207.544 191.582 213.303 189.201C216.832 189.967 223.208 188.904 228.309 190.583C232.602 193.027 233.835 188.224 238.893 186.311C238.893 186.375 238.893 186.077 239.127 185.971C239.127 185.95 239.254 186.035 239.446 185.907C239.509 185.673 239.701 185.609 240.189 185.354C240.274 185.121 240.636 184.589 241.401 184.547C238.234 182.209 244.908 173.304 238.213 175.259C238.128 175.259 236.725 174.303 237.299 173.112C237.299 173.027 237.278 173.07 237.256 172.815C237.448 172.581 237.278 172.602 237.682 171.773C237.682 171.795 237.682 171.71 237.873 171.731C237.873 171.731 238.404 172.262 238.723 171.943C238.723 171.901 238.723 171.901 238.68 171.688C238.68 171.646 238.808 171.54 239.021 171.391C239.042 171.348 239.127 171.051 239.021 170.753C239.042 170.732 239.191 170.456 239.446 170.179H239.509C239.509 170.179 239.573 170.201 239.722 170.201C239.722 170.137 240.126 169.797 240.338 169.35L240.274 169.18V169.138H240.466L240.508 169.095C240.508 169.095 240.508 169.074 240.466 168.883L240.508 168.798C240.636 168.798 240.891 168.33 241.231 168.585C241.677 168.479 241.571 167.416 242.57 167.374V167.31C243.718 163.994 243.207 161.529 238.489 157.321C239.169 155.323 240.848 153.198 241.018 149.351C236.81 149.266 231.433 149.627 225.099 149.202C225.036 148.777 225.206 148.777 225.397 147.927L225.291 147.714C224.802 147.31 224.866 147.587 224.717 145.61C225.354 145.164 225.461 145.525 225.928 144.08C225.737 143.91 224.695 143.166 225.716 142.316C226.077 141.827 225.546 141.168 226.332 139.829C229.223 139.829 233.707 139.829 239.021 139.978C239.042 140.87 239.658 140.955 240.955 141.572C241.486 143.548 238.744 147.268 241.04 149.372C242.23 149.266 243.165 148.777 244.015 147.31C247.394 146.821 250.136 148.543 248.266 141.466C245.184 141.338 249.435 137.406 247.947 135.493C247.82 135.451 247.82 135.493 247.288 135.536C247.713 130.201 248.478 132.496 253.707 131.859C253.771 129.84 252.028 128.437 254.196 126.418C254.855 126.758 257.299 127.098 257.894 129.797C260.487 130.732 263.611 129.797 264.27 125.546V125.461Z"/>
</mask>
<path d="M264.27 125.461C265.503 118.49 252.283 113.219 261.613 102.21C261.656 101.211 261.975 101.466 259.87 100.531C258.701 98.6818 264.1 96.1951 258.956 93.4533C252.772 95.4087 246.311 98.8943 237.575 101.338C237.575 101.296 237.469 101.53 237.469 101.657C237.341 101.764 237.363 101.657 237.214 102.019L237.15 102.061H237.065C236.725 101.02 236.045 99.7869 235.089 98.703C233.452 99.2769 234.238 100.616 235.046 102.996C234.493 103.166 231.964 102.167 230.2 101.083C230.136 101.105 230.136 101.105 229.818 101.423C229.159 101.551 228.309 99.787 226.481 100.042L226.417 99.9995C226.29 99.7869 226.608 99.6169 226.906 98.2142C226.906 98.2142 226.906 98.2142 226.8 98.0867C225.206 100.977 218.511 98.1717 218.064 101.551C215.153 106.992 218.999 99.6382 212.432 91.0517C209.754 91.9231 207.034 97.0877 206.077 101.211C203.803 100.361 200.105 100.212 195.897 97.3003C189.223 97.0452 191.773 93.007 193.219 86.7159C193.729 86.4609 191.263 87.7574 190.605 88.565C190.605 88.565 190.605 88.5225 190.392 88.6288C190.392 88.65 190.371 88.6075 190.286 88.8626C190.201 88.9476 190.264 88.905 189.861 89.1388C188.968 90.6266 188.267 91.9231 187.629 94.3035C187.884 94.6223 187.735 96.3651 186.29 97.279L186.333 97.3853C186.8 101.147 183.442 105.653 181.38 109.989C180.892 110.159 182.762 116.62 180.36 116.089L180.296 116.131L180.254 116.195C179.893 117.704 179.043 121.104 179.213 123.655L179.255 123.846C178.809 125.164 177.874 125.546 177.831 127.948C177.831 127.991 177.746 127.863 177.427 128.267L177.3 129.393C177.13 129.627 176.62 129.521 176.428 130.456V130.52C176.152 130.647 175.238 131.859 173.984 131.498C173.984 131.391 173.942 131.668 173.814 130.817L173.602 130.562C171.986 131.519 169.797 132.454 167.948 134.941C167.927 135.111 168.076 135.089 168.097 135.897C167.991 136.025 168.097 135.982 167.714 136.195C167.268 137.576 167.906 138.83 166.184 140.637L165.801 140.403L165.674 140.637C166.397 141.317 165.185 145.844 162.762 145.164C162.295 147.587 157.768 145.036 156.599 149.414C156.025 149.563 156.11 149.478 154.749 150.243L154.664 150.52C154.749 151.008 148.288 154.43 151.859 156.003C151.306 159.425 149.054 161.253 145.079 163.697C145.95 166.757 141.593 168.968 142.231 172.326C141.933 173.027 141.678 172.964 141.7 174.749C140.446 178.319 145.865 182.528 144.696 189.499C145.993 191.539 146.524 187.926 149.309 190.71C149.394 191.879 147.906 191.943 147.183 195.152C156.131 197.639 170.392 201.422 179.638 209.414L179.765 209.159L180.02 209.074C180.02 209.074 180.424 208.946 180.764 209.477L180.977 209.541C180.977 209.541 180.955 209.605 181.147 209.626C181.295 209.562 181.253 209.562 181.678 209.222C181.487 208.946 181.635 208.989 180.977 208.308C180.977 206.799 182.443 205.801 183.229 204.27C183.612 203.951 183.803 203.909 184.781 202.995C185.291 203.25 186.63 203.59 187.416 201.847C187.459 193.473 196.832 196.088 204.058 192.177C204.866 192.347 204.313 193.516 205.95 194.557C208.5 193.495 207.544 191.582 213.303 189.201C216.832 189.967 223.208 188.904 228.309 190.583C232.602 193.027 233.835 188.224 238.893 186.311C238.893 186.375 238.893 186.077 239.127 185.971C239.127 185.95 239.254 186.035 239.446 185.907C239.509 185.673 239.701 185.609 240.189 185.354C240.274 185.121 240.636 184.589 241.401 184.547C238.234 182.209 244.908 173.304 238.213 175.259C238.128 175.259 236.725 174.303 237.299 173.112C237.299 173.027 237.278 173.07 237.256 172.815C237.448 172.581 237.278 172.602 237.682 171.773C237.682 171.795 237.682 171.71 237.873 171.731C237.873 171.731 238.404 172.262 238.723 171.943C238.723 171.901 238.723 171.901 238.68 171.688C238.68 171.646 238.808 171.54 239.021 171.391C239.042 171.348 239.127 171.051 239.021 170.753C239.042 170.732 239.191 170.456 239.446 170.179H239.509C239.509 170.179 239.573 170.201 239.722 170.201C239.722 170.137 240.126 169.797 240.338 169.35L240.274 169.18V169.138H240.466L240.508 169.095C240.508 169.095 240.508 169.074 240.466 168.883L240.508 168.798C240.636 168.798 240.891 168.33 241.231 168.585C241.677 168.479 241.571 167.416 242.57 167.374V167.31C243.718 163.994 243.207 161.529 238.489 157.321C239.169 155.323 240.848 153.198 241.018 149.351C236.81 149.266 231.433 149.627 225.099 149.202C225.036 148.777 225.206 148.777 225.397 147.927L225.291 147.714C224.802 147.31 224.866 147.587 224.717 145.61C225.354 145.164 225.461 145.525 225.928 144.08C225.737 143.91 224.695 143.166 225.716 142.316C226.077 141.827 225.546 141.168 226.332 139.829C229.223 139.829 233.707 139.829 239.021 139.978C239.042 140.87 239.658 140.955 240.955 141.572C241.486 143.548 238.744 147.268 241.04 149.372C242.23 149.266 243.165 148.777 244.015 147.31C247.394 146.821 250.136 148.543 248.266 141.466C245.184 141.338 249.435 137.406 247.947 135.493C247.82 135.451 247.82 135.493 247.288 135.536C247.713 130.201 248.478 132.496 253.707 131.859C253.771 129.84 252.028 128.437 254.196 126.418C254.855 126.758 257.299 127.098 257.894 129.797C260.487 130.732 263.611 129.797 264.27 125.546V125.461Z" fill="#1E1E1E" stroke="#F3F4F6" stroke-width="4.25074" mask="url(#path-5-inside-3_2502_3)"/>
<path d="M264.27 125.461C265.503 118.49 252.283 113.219 261.613 102.21C261.656 101.211 261.975 101.466 259.87 100.531C258.701 98.6818 264.1 96.1951 258.956 93.4533C252.772 95.4087 246.311 98.8943 237.575 101.338C237.575 101.296 237.469 101.53 237.469 101.657C237.341 101.764 237.363 101.657 237.214 102.019L237.15 102.061H237.065C236.725 101.02 236.045 99.7869 235.089 98.703C233.452 99.2769 234.238 100.616 235.046 102.996C234.493 103.166 231.964 102.167 230.2 101.083C230.136 101.105 230.136 101.105 229.818 101.423C229.159 101.551 228.309 99.787 226.481 100.042L226.417 99.9995C226.29 99.7869 226.608 99.6169 226.906 98.2142C226.906 98.2142 226.906 98.2142 226.8 98.0867C225.206 100.977 218.511 98.1717 218.064 101.551C215.153 106.992 218.999 99.6382 212.432 91.0517C209.754 91.9231 207.034 97.0877 206.077 101.211C203.803 100.361 200.105 100.212 195.897 97.3003C189.223 97.0452 191.773 93.007 193.219 86.7159C193.729 86.4609 191.263 87.7574 190.605 88.565C190.605 88.565 190.605 88.5225 190.392 88.6288C190.392 88.65 190.371 88.6075 190.286 88.8626C190.201 88.9476 190.264 88.905 189.861 89.1388C188.968 90.6266 188.267 91.9231 187.629 94.3035C187.884 94.6223 187.735 96.3651 186.29 97.279L186.333 97.3853C186.8 101.147 183.442 105.653 181.38 109.989C180.892 110.159 182.762 116.62 180.36 116.089L180.296 116.131L180.254 116.195C179.893 117.704 179.043 121.104 179.213 123.655L179.255 123.846C178.809 125.164 177.874 125.546 177.831 127.948C177.831 127.991 177.746 127.863 177.427 128.267L177.3 129.393C177.13 129.627 176.62 129.521 176.428 130.456V130.52C176.152 130.647 175.238 131.859 173.984 131.498C173.984 131.391 173.942 131.668 173.814 130.817L173.602 130.562C171.986 131.519 169.797 132.454 167.948 134.941C167.927 135.111 168.076 135.089 168.097 135.897C167.991 136.025 168.097 135.982 167.714 136.195C167.268 137.576 167.906 138.83 166.184 140.637L165.801 140.403L165.674 140.637C166.397 141.317 165.185 145.844 162.762 145.164C162.295 147.587 157.768 145.036 156.599 149.414C156.025 149.563 156.11 149.478 154.749 150.243L154.664 150.52C154.749 151.008 148.288 154.43 151.859 156.003C151.306 159.425 149.054 161.253 145.079 163.697C145.95 166.757 141.593 168.968 142.231 172.326C141.933 173.027 141.678 172.964 141.7 174.749C140.446 178.319 145.865 182.528 144.696 189.499C145.993 191.539 146.524 187.926 149.309 190.71C149.394 191.879 147.906 191.943 147.183 195.152C156.131 197.639 170.392 201.422 179.638 209.414L179.765 209.159L180.02 209.074C180.02 209.074 180.424 208.946 180.764 209.477L180.977 209.541C180.977 209.541 180.955 209.605 181.147 209.626C181.295 209.562 181.253 209.562 181.678 209.222C181.487 208.946 181.635 208.989 180.977 208.308C180.977 206.799 182.443 205.801 183.229 204.27C183.612 203.951 183.803 203.909 184.781 202.995C185.291 203.25 186.63 203.59 187.416 201.847C187.459 193.473 196.832 196.088 204.058 192.177C204.866 192.347 204.313 193.516 205.95 194.557C208.5 193.495 207.544 191.582 213.303 189.201C216.832 189.967 223.208 188.904 228.309 190.583C232.602 193.027 233.835 188.224 238.893 186.311C238.893 186.375 238.893 186.077 239.127 185.971C239.127 185.95 239.254 186.035 239.446 185.907C239.509 185.673 239.701 185.609 240.189 185.354C240.274 185.121 240.636 184.589 241.401 184.547C238.234 182.209 244.908 173.304 238.213 175.259C238.128 175.259 236.725 174.303 237.299 173.112C237.299 173.027 237.278 173.07 237.256 172.815C237.448 172.581 237.278 172.602 237.682 171.773C237.682 171.795 237.682 171.71 237.873 171.731C237.873 171.731 238.404 172.262 238.723 171.943C238.723 171.901 238.723 171.901 238.68 171.688C238.68 171.646 238.808 171.54 239.021 171.391C239.042 171.348 239.127 171.051 239.021 170.753C239.042 170.732 239.191 170.456 239.446 170.179H239.509C239.509 170.179 239.573 170.201 239.722 170.201C239.722 170.137 240.126 169.797 240.338 169.35L240.274 169.18V169.138H240.466L240.508 169.095C240.508 169.095 240.508 169.074 240.466 168.883L240.508 168.798C240.636 168.798 240.891 168.33 241.231 168.585C241.677 168.479 241.571 167.416 242.57 167.374V167.31C243.718 163.994 243.207 161.529 238.489 157.321C239.169 155.323 240.848 153.198 241.018 149.351C236.81 149.266 231.433 149.627 225.099 149.202C225.036 148.777 225.206 148.777 225.397 147.927L225.291 147.714C224.802 147.31 224.866 147.587 224.717 145.61C225.354 145.164 225.461 145.525 225.928 144.08C225.737 143.91 224.695 143.166 225.716 142.316C226.077 141.827 225.546 141.168 226.332 139.829C229.223 139.829 233.707 139.829 239.021 139.978C239.042 140.87 239.658 140.955 240.955 141.572C241.486 143.548 238.744 147.268 241.04 149.372C242.23 149.266 243.165 148.777 244.015 147.31C247.394 146.821 250.136 148.543 248.266 141.466C245.184 141.338 249.435 137.406 247.947 135.493C247.82 135.451 247.82 135.493 247.288 135.536C247.713 130.201 248.478 132.496 253.707 131.859C253.771 129.84 252.028 128.437 254.196 126.418C254.855 126.758 257.299 127.098 257.894 129.797C260.487 130.732 263.611 129.797 264.27 125.546V125.461Z" fill="#1E1E1E" stroke="#F3F4F6" stroke-width="1.06269" stroke-linecap="round" stroke-linejoin="round"/>
<path d="M239.07 147.74C239.089 147.889 239.118 148.037 239.156 148.182C237.832 148.185 236.561 148.196 235.344 148.206C231.975 148.235 229.014 148.26 226.435 148.12L226.585 147.821L226.347 147.346L226.241 147.133L226.109 146.87L225.901 146.737C225.895 146.727 225.887 146.71 225.877 146.687C225.837 146.594 225.801 146.454 225.778 146.281C225.774 146.25 225.77 146.219 225.767 146.188C225.857 146.122 225.938 146.051 226.009 145.981C226.139 145.854 226.25 145.716 226.344 145.58L226.991 146.044V143.974C226.991 143.973 226.991 143.973 226.991 143.972C226.991 143.951 226.992 143.82 226.946 143.667C226.926 143.602 226.85 143.357 226.607 143.155C226.589 143.143 226.568 143.129 226.544 143.115L226.548 143.11C226.516 143.087 226.489 143.066 226.467 143.047L226.652 142.969L226.759 142.41C226.905 141.653 226.994 141.113 227.045 140.786C232.052 140.789 235.077 140.826 238.19 140.911C238.262 141.044 238.35 141.167 238.449 141.279C238.756 141.626 239.142 141.832 239.429 141.959C239.591 142.031 239.767 142.096 239.914 142.148C239.895 142.963 239.696 143.758 239.482 144.618C239.405 144.925 239.327 145.24 239.253 145.567C239.103 146.239 238.973 146.999 239.07 147.74ZM225.911 146.754C225.911 146.754 225.911 146.753 225.911 146.752L225.911 146.754ZM224.682 144.232C224.624 144.339 224.57 144.412 224.53 144.455L224.028 144.505L223.766 145.029C223.713 145.136 223.689 145.229 223.682 145.256L223.682 145.256C223.672 145.297 223.665 145.333 223.661 145.358C223.652 145.408 223.647 145.457 223.643 145.499C223.634 145.583 223.629 145.682 223.627 145.787C223.623 145.997 223.632 146.269 223.671 146.561C223.709 146.847 223.781 147.19 223.921 147.519L224.682 144.232Z" fill="#1E1E1E" stroke="#F3F4F6" stroke-width="2.12537"/>
<path d="M240.933 149.032C238.914 147.417 241.231 144.548 240.955 141.466C240.721 141.126 238.914 141.062 239.02 139.872C235.45 139.766 232.219 139.723 226.332 139.723C225.907 140.403 226.226 139.553 225.716 142.21C225.312 142.38 224.95 143.273 225.928 143.974C225.928 143.931 225.567 145.419 224.717 145.504C224.674 145.589 224.589 147.162 225.291 147.608L225.397 147.821C225.397 147.821 225.035 148.543 225.099 149.096C229.307 149.436 234.642 149.224 241.018 149.245L240.912 149.032H240.933Z" fill="#1E1E1E" stroke="#F3F4F6" stroke-width="1.06269" stroke-linecap="round" stroke-linejoin="round"/>
</svg>
